# ProBuilder 5.0.4
# https://unity3d.com/unity/features/worldbuilding/probuilder
# 10/03/2022 16:31:24

mtllib ./prison_blockout.mtl
o prison blockout

g Plane
v 0.08678436 0 -35.94769
v 0.08678436 0 -29.04404
v -3.827827 0 -29.04404
v -3.827824 0 -35.94769
v 0.08678436 0 6.697216
v -3.827827 0 6.697216
v 2.044088 0 -35.94769
v 4.001392 0 -35.94769
v 4.001392 0 -29.04404
v 2.04409 0 -29.04404
v 4.001392 0 6.697216
v 2.04409 0 6.697216
v -42.81866 4.997849E-05 -29.04404
v -50.72746 9.998679E-05 -29.04404
v -50.72746 9.998679E-05 -35.94769
v -42.81866 4.997849E-05 -35.94769
v -50.72746 0.0001499951 -56.15697
v -42.81866 9.998679E-05 -56.15697
v -75.1527 0.0005749166 -102.2056
v -69.92843 0.0005499125 -102.2056
v -75.1527 0.0006749034 -121.1163
v -69.92843 0.0006498992 -121.1163
v -69.76275 0.000399977 -39.62531
v -74.98702 0.0004249513 -39.62531
v -69.76275 0.0004999638 -9.07682
v -74.98702 0.0005249381 -9.07682
v -50.72746 0.0001999736 -63.97516
v -42.81866 0.0001499653 -63.97516
v -42.81866 0.0001249611 -61.25201
v -50.72746 0.0001749694 -61.25201
v -54.60477 0.000274986 -61.25201
v -54.60477 0.0002999604 -63.97516
v -59.0218 0.000374943 -55.11318
v -54.78329 0.0003999472 -68.22919
v -69.92843 0.0004499257 -68.22919
v -69.84559 0.0004249513 -55.11318
v -86.39321 0.000499934 -68.22919
v -75.1527 0.0004749298 -68.22919
v -75.06986 0.0004499257 -55.11318
v -86.31037 0.0004749596 -55.11318
v -42.81866 0.000112474 -60.35875
v -50.72746 0.0001624823 -60.35875
v -54.60477 0.0002624691 -60.35875
v -54.60477 0.0002499819 -56.15697
v -58.98038 0.0003624558 -49.02351
v -54.61762 0.0003499687 -39.62531
v -69.80416 0.0004124641 -49.02351
v -75.02843 0.0004374385 -49.02351
v -86.26894 0.0004624426 -49.02351
v -86.22753 0.0004499555 -39.62531
v -98.28634 0.0005624294 -49.02351
v -98.32777 0.0005749464 -55.11318
v -75.1527 0.0005249083 -95.26639
v -69.92843 0.000499934 -95.26639
v -35.6806 0.0006498992 -102.2056
v -35.6806 0.0005999207 -95.26639
v -36.07698 2.500415E-05 -35.94769
v -36.07699 2.500415E-05 -29.04404
v -42.81866 0.0001499653 -48.34037
v -36.07698 0.0001249909 -48.34037
v -35.14661 0.000749886 -117.3561
v -35.14661 0.0006999075 -78.78471
v 18.75999 0.0008498728 -117.3561
v 18.75999 0.0007998943 -78.78471
v 0.08678436 0 21.37477
v -3.827827 0 21.37477
v 0.08678436 0 35.94769
v -3.827824 0 35.94769
v 4.001392 0 21.37477
v 2.04409 0 21.37477
v 4.001392 0 35.94769
v 2.044088 0 35.94769
v 10.99569 9.998679E-05 6.697216
v 10.99569 9.998679E-05 21.37477
v 13.69895 0.0001999736 6.697216
v 13.69895 0.0001999736 21.37477
v 4.001392 12.62777 21.37477
v 4.001392 12.62777 35.94769
v -3.827827 12.62777 35.94769
v -3.827827 12.62777 21.37477
v 0.08678436 12.62777 35.94769
v 2.04409 12.62777 35.94769
v -3.827827 12.62777 6.69722
v 10.99569 12.62787 21.37477
v 14.77464 -0.03715596 21.37477
v 14.77464 -0.03715596 6.69722
v 4.001392 12.62777 6.69722
v 10.99569 12.62787 6.69722
v 4.001392 12.62777 -29.04404
v -3.827827 12.62777 -29.04404
v 4.001392 12.62777 -35.94769
v 2.04409 12.62777 -35.94769
v -36.07698 12.6278 -35.94769
v -3.827827 12.62777 -35.94769
v 0.08678436 12.62777 -35.94769
v -36.07699 12.6278 -29.04404
v -42.81866 12.62782 -29.04404
v -50.72746 12.62787 -29.04404
v -50.72746 12.62787 -35.94769
v -42.81866 12.62788 -60.35875
v -42.81866 12.62787 -56.15697
v -50.72746 12.62792 -56.15697
v -54.60477 12.62802 -56.15697
v -42.81866 12.62792 -63.97516
v -42.81866 12.6279 -61.25201
v -50.72746 12.62797 -63.97516
v -54.60477 12.62807 -63.97516
v -54.78329 12.62817 -68.22919
v -54.61762 12.62812 -39.62531
v -42.81866 12.62792 -48.34037
v -36.07698 12.6279 -48.34037
v -42.81866 12.62782 -35.94769
v -69.76275 12.62817 -39.62531
v -69.76275 12.62827 -9.07682
v -74.98702 12.6283 -9.07682
v -74.98702 12.6282 -39.62531
v -86.22753 12.62822 -39.62531
v -86.26894 12.62823 -49.02351
v -98.28634 12.62833 -49.02351
v -98.32777 12.62835 -55.11318
v -86.31037 12.62825 -55.11318
v -86.39321 12.62827 -68.22919
v -75.1527 12.62825 -68.22919
v -69.92843 12.62822 -68.22919
v -69.92843 12.62827 -95.26639
v -75.1527 12.6283 -95.26639
v -75.1527 12.62835 -102.2056
v -75.1527 12.62845 -121.1163
v -35.6806 12.62837 -95.26639
v -69.92843 12.62832 -102.2056
v -35.6806 12.62842 -102.2056
v -69.92843 12.62842 -121.1163
v -35.14661 12.62847 -78.78471
v 18.75999 12.62857 -78.78471
v 18.75999 12.62862 -117.3561
v -35.14661 12.62852 -117.3561

vt -0.08678436 -35.94769
vt -0.08678436 -29.04404
vt 3.827827 -29.04404
vt 3.827824 -35.94769
vt -0.08678436 6.697216
vt 3.827827 6.697216
vt -2.044088 -35.94769
vt -4.001392 -35.94769
vt -4.001392 -29.04404
vt -2.04409 -29.04404
vt -4.001392 6.697216
vt -2.04409 6.697216
vt 42.81866 -29.04404
vt 50.72746 -29.04404
vt 50.72746 -35.94769
vt 42.81866 -35.94769
vt 50.72746 -56.15697
vt 42.81866 -56.15697
vt 75.1527 -102.2056
vt 69.92843 -102.2056
vt 75.1527 -121.1163
vt 69.92843 -121.1163
vt 69.76275 -39.62531
vt 74.98702 -39.62531
vt 69.76275 -9.07682
vt 74.98702 -9.07682
vt 50.72746 -63.97516
vt 42.81866 -63.97516
vt 42.81866 -61.25201
vt 50.72746 -61.25201
vt 54.60477 -61.25201
vt 54.60477 -63.97516
vt 59.0218 -55.11318
vt 54.78329 -68.22919
vt 69.92843 -68.22919
vt 69.84559 -55.11318
vt 86.39321 -68.22919
vt 75.1527 -68.22919
vt 75.06986 -55.11318
vt 86.31037 -55.11318
vt 42.81866 -60.35875
vt 50.72746 -60.35875
vt 54.60477 -60.35875
vt 54.60477 -56.15697
vt 58.98038 -49.02351
vt 54.61762 -39.62531
vt 69.80416 -49.02351
vt 75.02843 -49.02351
vt 86.26894 -49.02351
vt 86.22753 -39.62531
vt 98.28634 -49.02351
vt 98.32777 -55.11318
vt 75.1527 -95.26639
vt 69.92843 -95.26639
vt 35.6806 -102.2056
vt 35.6806 -95.26639
vt 36.07698 -35.94769
vt 36.07699 -29.04404
vt 42.81866 -48.34037
vt 36.07698 -48.34037
vt 35.14661 -117.3561
vt 35.14661 -78.78471
vt -18.75999 -117.3561
vt -18.75999 -78.78471
vt -0.08678436 21.37477
vt 3.827827 21.37477
vt -0.08678436 35.94769
vt 3.827824 35.94769
vt -4.001392 21.37477
vt -2.04409 21.37477
vt -4.001392 35.94769
vt -2.044088 35.94769
vt -10.99569 6.697216
vt -10.99569 21.37477
vt -13.69895 6.697216
vt -13.69895 21.37477
vt 21.37477 0
vt 35.94769 0
vt 21.37477 12.62777
vt 35.94769 12.62777
vt -35.94769 1.156343E-06
vt -21.37476 1.156343E-06
vt -35.94769 12.62777
vt -21.37477 12.62777
vt -0.08678436 2.171872E-05
vt 3.827824 2.171872E-05
vt -0.08678436 12.62779
vt 3.827827 12.62779
vt -2.044088 2.171872E-05
vt -2.04409 12.62779
vt -4.001392 2.171872E-05
vt -4.001392 12.62779
vt -6.697216 0
vt -6.69722 12.62777
vt -10.99569 0.0001096724
vt -10.99569 12.62788
vt 13.69895 -0.003070652
vt 10.99569 -0.003170639
vt 14.77464 -0.04042658
vt 10.99569 12.6246
vt -13.69069 6.697216
vt -13.69069 21.37477
vt -14.76702 6.69722
vt -14.76702 21.37477
vt 4.001392 2.023148E-06
vt 10.99569 0.0001020099
vt 4.001392 12.62777
vt 10.99569 12.62787
vt 13.69895 0.0002019967
vt 14.77464 -0.03715393
vt -29.04404 0
vt 6.697216 0
vt -29.04404 12.62777
vt 6.69722 12.62777
vt 29.04404 0
vt 29.04404 12.62777
vt 2.044088 0
vt 2.04409 12.62777
vt -36.07698 2.500415E-05
vt -3.827824 0
vt -36.07698 12.6278
vt -3.827827 12.62777
vt 0.08678436 0
vt 0.08678436 12.62777
vt 36.07699 2.500415E-05
vt 36.07699 12.6278
vt 42.81866 4.997849E-05
vt 42.81866 12.62782
vt 50.72746 9.998679E-05
vt 50.72746 12.62787
vt -60.35875 0.000112474
vt -56.15697 9.998679E-05
vt -60.35875 12.62788
vt -56.15697 12.62787
vt 56.15697 0.0001499951
vt 56.15697 12.62792
vt 54.60477 0.0002499819
vt 54.60477 12.62802
vt -63.97516 0.0001499653
vt -61.25201 0.0001249611
vt -63.97516 12.62792
vt -61.25201 12.6279
vt -50.72746 0.0001999736
vt -42.81866 0.0001499653
vt -50.72746 12.62797
vt -42.81866 12.62792
vt -54.60477 0.0002999604
vt -54.60477 12.62807
vt -70.46606 0.0003999472
vt -66.20828 0.0002999604
vt -70.46606 12.62817
vt -66.20828 12.62807
vt -56.11452 0.0002499819
vt -39.58285 0.0003499687
vt -56.11452 12.62802
vt -39.58285 12.62812
vt -48.34037 0.0001249909
vt -48.34037 12.6279
vt 54.61762 0.0003499687
vt 69.76275 0.000399977
vt 54.61762 12.62812
vt 69.76275 12.62817
vt -39.62531 0.000399977
vt -9.07682 0.0004999638
vt -39.62531 12.62817
vt -9.07682 12.62827
vt 9.07682 0.0005249381
vt 39.62531 0.0004249513
vt 9.07682 12.6283
vt 39.62531 12.6282
vt 74.98702 0.0004249513
vt 86.22753 0.0004499555
vt 74.98702 12.6282
vt 86.22753 12.62822
vt 74.98702 0.0005249381
vt 40.00487 0.0004499555
vt 49.40316 0.0004624426
vt 40.00487 12.62822
vt 49.40316 12.62823
vt 86.26894 0.0004624426
vt 98.28634 0.0005624294
vt 86.26894 12.62823
vt 98.28634 12.62833
vt 49.69099 0.0005624294
vt 55.78081 0.0005749464
vt 49.69099 12.62833
vt 55.78081 12.62835
vt -98.32777 0.0005749464
vt -86.31037 0.0004749596
vt -98.32777 12.62835
vt -86.31037 12.62825
vt 55.65721 0.0004749596
vt 68.77348 0.000499934
vt 55.65721 12.62825
vt 68.77348 12.62827
vt -86.39321 0.000499934
vt -75.1527 0.0004749298
vt -86.39321 12.62827
vt -75.1527 12.62825
vt -69.92843 0.0004499257
vt -54.78329 0.0003999472
vt -69.92843 12.62822
vt -54.78329 12.62817
vt -95.26639 0.000499934
vt -68.22919 0.0004499257
vt -95.26639 12.62827
vt -68.22919 12.62822
vt 68.22919 0.0004749298
vt 95.26639 0.0005249083
vt 68.22919 12.62825
vt 95.26639 12.6283
vt 102.2056 0.0005749166
vt 121.1163 0.0006749034
vt 102.2056 12.62835
vt 121.1163 12.62845
vt 35.6806 0.0005999207
vt 69.92843 0.000499934
vt 35.6806 12.62837
vt 69.92843 12.62827
vt -69.92843 0.0005499125
vt -35.6806 0.0006498992
vt -35.6806 12.62842
vt -121.1163 0.0006498992
vt -102.2056 0.0005499125
vt -121.1163 12.62842
vt -102.2056 12.62832
vt -75.1527 0.0006749034
vt 79.88152 0.0006999075
vt 96.37185 0.0005999207
vt 79.88152 12.62847
vt 96.37185 12.62837
vt -18.75999 0.0007998943
vt 35.14661 0.0006999075
vt -18.75999 12.62857
vt 35.14661 12.62847
vt -117.3561 0.0008498728
vt -78.78471 0.0007998943
vt -117.3561 12.62862
vt -78.78471 12.62857
vt -35.14661 0.000749886
vt 18.75999 0.0008498728
vt -35.14661 12.62852
vt 18.75999 12.62862
vt 100.8853 0.0006498992
vt 116.0452 0.000749886
vt 100.8853 12.62842
vt 116.0452 12.62852

vn 0 1 0
vn 0.0003415591 0.9999999 9.171116E-06
vn -1 0 0
vn 1 3.020881E-07 -2.617662E-07
vn 0 6.041758E-07 -1
vn -5.659592E-09 0.0001530134 1
vn 7.565001E-07 7.673327E-05 0
vn 0.03470657 0.9993975 0
vn -0.9991207 0 0.04192629
vn -0.9999997 0 -0.0007771687
vn 0.9999903 0 -0.00440637
vn 0.9999769 0 -0.006802768
vn 0.9999801 0 -0.006315819
vn 0.9994755 0 -0.03238241
vn 0.9993795 0 0.03522431

usemtl Grid_Default
f 3/3/1 2/2/1 1/1/1 4/4/1
f 6/6/1 5/5/1 2/2/1 3/3/1
f 10/10/1 9/9/1 8/8/1 7/7/1
f 12/12/1 11/11/1 9/9/1 10/10/1
f 2/2/1 10/10/1 7/7/1 1/1/1
f 5/5/1 12/12/1 10/10/1 2/2/1
f 13/13/1 16/16/1 15/15/1 14/14/1
f 15/15/1 16/16/1 18/18/1 17/17/1
f 22/22/1 21/21/1 19/19/1 20/20/1
f 26/26/1 25/25/1 23/23/1 24/24/1
f 30/30/1 29/29/1 28/28/1 27/27/1
f 31/31/1 30/30/1 27/27/1 32/32/1
f 33/33/1 31/31/1 32/32/2 34/34/1
f 36/36/1 33/33/1 34/34/1 35/35/1
f 40/40/1 39/39/1 38/38/1 37/37/1
f 39/39/1 36/36/1 35/35/1 38/38/1
f 42/42/1 41/41/1 29/29/1 30/30/1
f 17/17/1 18/18/1 41/41/1 42/42/1
f 43/43/1 42/42/1 30/30/1 31/31/1
f 44/44/1 17/17/1 42/42/1 43/43/1
f 33/33/1 45/45/1 43/43/1 31/31/1
f 45/45/1 46/46/1 44/44/1 43/43/1
f 47/47/1 45/45/1 33/33/1 36/36/1
f 23/23/1 46/46/1 45/45/1 47/47/1
f 49/49/1 48/48/1 39/39/1 40/40/1
f 50/50/1 24/24/1 48/48/1 49/49/1
f 48/48/1 47/47/1 36/36/1 39/39/1
f 24/24/1 23/23/1 47/47/1 48/48/1
f 52/52/1 51/51/1 49/49/1 40/40/1
f 38/38/1 35/35/1 54/54/1 53/53/1
f 53/53/1 54/54/1 20/20/1 19/19/1
f 56/56/1 55/55/1 20/20/1 54/54/1
f 58/58/1 57/57/1 16/16/1 13/13/1
f 3/3/1 4/4/1 57/57/1 58/58/1
f 60/60/1 59/59/1 16/16/1 57/57/1
f 62/62/1 61/61/1 55/55/1 56/56/1
f 64/64/1 63/63/1 61/61/1 62/62/1
f 65/65/1 5/5/1 6/6/1 66/66/1
f 67/67/1 65/65/1 66/66/1 68/68/1
f 70/70/1 69/69/1 11/11/1 12/12/1
f 72/72/1 71/71/1 69/69/1 70/70/1
f 70/70/1 12/12/1 5/5/1 65/65/1
f 72/72/1 70/70/1 65/65/1 67/67/1
f 74/74/1 73/73/1 11/11/1 69/69/1
f 76/76/1 75/75/1 73/73/1 74/74/1
f 78/80/3 77/79/3 69/77/3 71/78/3
f 80/84/4 79/83/4 68/81/4 66/82/4
f 79/88/5 81/87/5 67/85/5 68/86/5
f 81/87/5 82/90/5 72/89/5 67/85/5
f 82/90/5 78/92/5 71/91/5 72/89/5
f 83/94/4 80/84/4 66/82/4 6/93/4
f 77/92/5 84/96/5 74/95/5 69/91/5
f 84/100/5 85/99/7 76/97/6 74/98/7
f 85/104/8 86/103/8 75/101/8 76/102/8
f 88/108/6 87/107/6 11/105/6 73/106/6
f 86/110/6 88/108/6 73/106/6 75/109/6
f 87/114/3 89/113/3 9/111/3 11/112/3
f 90/116/4 83/94/4 6/93/4 3/115/4
f 89/113/3 91/83/3 8/81/3 9/111/3
f 91/107/6 92/118/6 7/117/6 8/105/6
f 94/122/6 93/121/6 57/119/6 4/120/6
f 95/124/6 94/122/6 4/120/6 1/123/6
f 92/118/6 95/124/6 1/123/6 7/117/6
f 96/126/5 90/88/5 3/86/5 58/125/5
f 97/128/5 96/126/5 58/125/5 13/127/5
f 98/130/5 97/128/5 13/127/5 14/129/5
f 99/80/4 98/116/4 14/115/4 15/78/4
f 101/134/3 100/133/3 41/131/3 18/132/3
f 102/136/4 99/80/4 15/78/4 17/135/4
f 103/138/5 102/130/5 17/129/5 44/137/5
f 105/142/3 104/141/3 28/139/3 29/140/3
f 100/133/3 105/142/3 29/140/3 41/131/3
f 104/146/6 106/145/6 27/143/6 28/144/6
f 106/145/6 107/148/6 32/147/6 27/143/6
f 107/152/9 108/151/9 34/149/9 32/150/9
f 109/156/10 103/155/10 44/153/10 46/154/10
f 111/121/6 110/146/6 59/144/6 60/119/6
f 93/83/3 111/158/3 60/157/3 57/81/3
f 112/83/3 101/134/3 18/132/3 16/81/3
f 113/162/5 109/161/5 46/159/5 23/160/5
f 114/166/3 113/165/3 23/163/3 25/164/3
f 116/170/4 115/169/4 26/167/4 24/168/4
f 117/174/5 116/173/5 24/171/5 50/172/5
f 115/173/5 114/162/5 25/160/5 26/175/5
f 118/179/11 117/178/11 50/176/11 49/177/11
f 119/183/5 118/182/5 49/180/5 51/181/5
f 120/187/12 119/186/12 51/184/12 52/185/12
f 121/191/6 120/190/6 52/188/6 40/189/6
f 122/195/13 121/194/13 40/192/13 37/193/13
f 123/199/6 122/198/6 37/196/6 38/197/6
f 108/203/6 124/202/6 35/200/6 34/201/6
f 124/207/3 125/206/3 54/204/3 35/205/3
f 126/211/4 123/210/4 38/208/4 53/209/4
f 128/215/4 127/214/4 19/212/4 21/213/4
f 127/214/4 126/211/4 53/209/4 19/212/4
f 125/219/5 129/218/5 56/216/5 54/217/5
f 131/222/6 130/202/6 20/220/6 55/221/6
f 130/226/3 132/225/3 22/223/3 20/224/3
f 132/202/6 128/199/6 21/227/6 22/220/6
f 129/231/14 133/230/14 62/228/14 56/229/14
f 133/235/5 134/234/5 64/232/5 62/233/5
f 134/239/3 135/238/3 63/236/3 64/237/3
f 135/243/6 136/242/6 61/240/6 63/241/6
f 136/247/15 131/246/15 55/244/15 61/245/15

